<svg width="40" height="37" viewBox="0 0 40 37" fill="none" xmlns="http://www.w3.org/2000/svg">
<path fill-rule="evenodd" clip-rule="evenodd" d="M31.3007 19.5735C26.4963 19.5735 22.6014 23.4683 22.6014 28.2731C22.6014 33.0776 26.4963 36.9724 31.3007 36.9724C36.1052 36.9724 40 33.0776 40 28.2731C40 23.4683 36.1052 19.5735 31.3007 19.5735ZM8.69928 19.5743C3.89484 19.5743 0 23.4683 0 28.2731C0 33.0776 3.89484 36.9724 8.69928 36.9724C13.5039 36.9724 17.399 33.0776 17.399 28.2731C17.399 23.4683 13.5039 19.5743 8.69928 19.5743ZM28.6991 8.6991C28.6991 13.5039 24.8045 17.3991 20 17.3991C15.1954 17.3991 11.3007 13.5039 11.3007 8.6991C11.3007 3.89523 15.1954 0 20 0C24.8045 0 28.6991 3.89523 28.6991 8.6991Z" fill="#F06A6A"/>
</svg>
