<svg width="30" height="70" viewBox="0 0 30 70" fill="none" xmlns="http://www.w3.org/2000/svg">
<path d="M16.7595 40.4723C16.712 40.5198 16.51 40.5198 16.1535 40.4723V48.6363H13.5153V40.4723C13.2301 40.5198 13.0638 40.5198 13.0162 40.4723C10.2117 40.4723 7.9776 39.6166 6.3139 37.9054C4.65021 36.1942 3.81836 33.8769 3.81836 30.9535C3.81836 27.2102 5.06613 24.1562 7.56168 21.7913H11.0198C8.21527 24.3582 6.81301 27.436 6.81301 31.0248C6.81301 33.2114 7.37748 34.9167 8.50642 36.1407C9.64724 37.3647 11.1386 37.9767 12.9806 37.9767H13.5153V26.1942C13.5153 22.9737 15.1434 21.3635 18.3995 21.3635C20.6336 21.3635 22.4458 22.2488 23.8362 24.0195C25.2266 25.7783 25.9217 28.149 25.9217 31.1318C25.9217 33.9007 25.084 36.1526 23.4084 37.8876C21.7447 39.6107 19.5284 40.4723 16.7595 40.4723ZM16.1535 37.9767H16.7595C18.5658 37.9767 20.0453 37.3528 21.198 36.1051C22.3507 34.8454 22.9271 33.1401 22.9271 30.9892C22.9271 28.8502 22.4874 27.127 21.608 25.8199C20.7405 24.5127 19.6948 23.8591 18.4708 23.8591C16.9259 23.8591 16.1535 24.6256 16.1535 26.1585V37.9767Z" fill="#040305"/>
</svg>
